M48
; DRILL file {KiCad 8.0.8} date 2025-02-23T10:11:52-0800
; FORMAT={-:-/ absolute / inch / decimal}
; #@! TF.CreationDate,2025-02-23T10:11:52-08:00
; #@! TF.GenerationSoftware,Kicad,Pcbnew,8.0.8
; #@! TF.FileFunction,Plated,1,2,PTH
FMAT,2
INCH
; #@! TA.AperFunction,Plated,PTH,ViaDrill
T1C0.0118
; #@! TA.AperFunction,Plated,PTH,ComponentDrill
T2C0.0394
; #@! TA.AperFunction,Plated,PTH,ComponentDrill
T3C0.1181
%
G90
G05
T1
X-0.085Y-0.29
X-0.065Y-0.665
X0.2Y-1.535
X0.49Y-0.895
X0.545Y-1.07
X0.55Y-1.135
X0.755Y-0.97
X0.79Y-1.65
X0.89Y-0.93
X1.05Y-1.195
X1.065Y-0.665
X1.095Y-0.415
X1.3457Y-0.9754
X1.415Y-0.805
X1.59Y-0.37
T2
X0.2827Y-0.4323
X0.2827Y-0.6323
X0.2827Y-0.8323
X0.2827Y-1.0323
X0.2827Y-1.2323
X1.0386Y-1.5248
X1.0386Y-1.6248
X1.1386Y-1.5248
X1.1386Y-1.6248
X1.2386Y-1.5248
X1.2386Y-1.6248
X1.3386Y-1.5248
X1.3386Y-1.6248
T3
X0.0Y0.0
X0.0Y-1.5748
X1.5748Y0.0
X1.5748Y-1.5748
M30
