%TF.GenerationSoftware,KiCad,Pcbnew,8.0.8*%
%TF.CreationDate,2025-02-23T10:11:50-08:00*%
%TF.ProjectId,bts7960 adapter,62747337-3936-4302-9061-646170746572,rev?*%
%TF.SameCoordinates,Original*%
%TF.FileFunction,Copper,L2,Bot*%
%TF.FilePolarity,Positive*%
%FSLAX46Y46*%
G04 Gerber Fmt 4.6, Leading zero omitted, Abs format (unit mm)*
G04 Created by KiCad (PCBNEW 8.0.8) date 2025-02-23 10:11:50*
%MOMM*%
%LPD*%
G01*
G04 APERTURE LIST*
G04 Aperture macros list*
%AMRoundRect*
0 Rectangle with rounded corners*
0 $1 Rounding radius*
0 $2 $3 $4 $5 $6 $7 $8 $9 X,Y pos of 4 corners*
0 Add a 4 corners polygon primitive as box body*
4,1,4,$2,$3,$4,$5,$6,$7,$8,$9,$2,$3,0*
0 Add four circle primitives for the rounded corners*
1,1,$1+$1,$2,$3*
1,1,$1+$1,$4,$5*
1,1,$1+$1,$6,$7*
1,1,$1+$1,$8,$9*
0 Add four rect primitives between the rounded corners*
20,1,$1+$1,$2,$3,$4,$5,0*
20,1,$1+$1,$4,$5,$6,$7,0*
20,1,$1+$1,$6,$7,$8,$9,0*
20,1,$1+$1,$8,$9,$2,$3,0*%
G04 Aperture macros list end*
%TA.AperFunction,ComponentPad*%
%ADD10RoundRect,0.410105X3.589895X-0.839895X3.589895X0.839895X-3.589895X0.839895X-3.589895X-0.839895X0*%
%TD*%
%TA.AperFunction,ComponentPad*%
%ADD11C,6.000000*%
%TD*%
%TA.AperFunction,ComponentPad*%
%ADD12R,1.700000X1.700000*%
%TD*%
%TA.AperFunction,ComponentPad*%
%ADD13O,1.700000X1.700000*%
%TD*%
%TA.AperFunction,ViaPad*%
%ADD14C,0.600000*%
%TD*%
%TA.AperFunction,Conductor*%
%ADD15C,1.000000*%
%TD*%
G04 APERTURE END LIST*
D10*
%TO.P,J1,1,Pin_1*%
%TO.N,+5V*%
X4680000Y-31300000D03*
%TO.P,J1,2,Pin_2*%
%TO.N,GND*%
X4680000Y-26220000D03*
%TO.P,J1,3,Pin_3*%
%TO.N,/PWM*%
X4680000Y-21140000D03*
%TO.P,J1,4,Pin_4*%
%TO.N,/DIS*%
X4680000Y-16060000D03*
%TO.P,J1,5,Pin_5*%
%TO.N,/DIR*%
X4680000Y-10980000D03*
%TD*%
D11*
%TO.P,REF\u002A\u002A,1*%
%TO.N,N/C*%
X0Y0D03*
%TD*%
%TO.P,REF\u002A\u002A,1*%
%TO.N,N/C*%
X40000000Y-40000000D03*
%TD*%
%TO.P,REF\u002A\u002A,1*%
%TO.N,N/C*%
X40000000Y0D03*
%TD*%
%TO.P,REF\u002A\u002A,1*%
%TO.N,N/C*%
X0Y-40000000D03*
%TD*%
D12*
%TO.P,J2,1,Pin_1*%
%TO.N,GND*%
X26380000Y-41270000D03*
D13*
%TO.P,J2,2,Pin_2*%
%TO.N,+5V*%
X26380000Y-38730000D03*
%TO.P,J2,3,Pin_3*%
%TO.N,unconnected-(J2-Pin_3-Pad3)*%
X28920000Y-41270000D03*
%TO.P,J2,4,Pin_4*%
%TO.N,unconnected-(J2-Pin_4-Pad4)*%
X28920000Y-38730000D03*
%TO.P,J2,5,Pin_5*%
%TO.N,/L_EN*%
X31460000Y-41270000D03*
%TO.P,J2,6,Pin_6*%
X31460000Y-38730000D03*
%TO.P,J2,7,Pin_7*%
%TO.N,/DIR*%
X34000000Y-41270000D03*
%TO.P,J2,8,Pin_8*%
%TO.N,/RPWM*%
X34000000Y-38730000D03*
%TD*%
D14*
%TO.N,GND*%
X-1651000Y-16891000D03*
X-2159000Y-7366000D03*
X20066000Y-41910000D03*
X5080000Y-38989000D03*
X22606000Y-23622000D03*
X26670000Y-30353000D03*
X19177000Y-24638000D03*
X27051000Y-16891000D03*
X35941000Y-20447000D03*
X40386000Y-9398000D03*
X27813000Y-10541000D03*
X12446000Y-22733000D03*
X13843000Y-27178000D03*
X13970000Y-28829000D03*
%TO.N,+5V*%
X34180000Y-24775000D03*
%TD*%
D15*
%TO.N,+5V*%
X34180000Y-29574000D02*
X34180000Y-24775000D01*
X26380000Y-37374000D02*
X34180000Y-29574000D01*
X26380000Y-38730000D02*
X26380000Y-37374000D01*
%TD*%
%TA.AperFunction,Conductor*%
%TO.N,GND*%
G36*
X43261946Y-1620590D02*
G01*
X43305397Y-1675306D01*
X43314500Y-1721939D01*
X43314500Y-38278060D01*
X43294815Y-38345099D01*
X43242011Y-38390854D01*
X43172853Y-38400798D01*
X43109297Y-38371773D01*
X43080016Y-38334355D01*
X43035687Y-38247356D01*
X43035681Y-38247345D01*
X42835852Y-37939635D01*
X42604952Y-37654498D01*
X42604949Y-37654494D01*
X42345506Y-37395051D01*
X42313010Y-37368736D01*
X42060364Y-37164147D01*
X41752656Y-36964320D01*
X41425739Y-36797746D01*
X41083206Y-36666260D01*
X41083199Y-36666258D01*
X40728794Y-36571295D01*
X40728790Y-36571294D01*
X40728789Y-36571294D01*
X40366405Y-36513898D01*
X40000001Y-36494696D01*
X39999999Y-36494696D01*
X39633594Y-36513898D01*
X39271211Y-36571294D01*
X39271209Y-36571294D01*
X38916793Y-36666260D01*
X38574260Y-36797746D01*
X38247343Y-36964320D01*
X37939635Y-37164147D01*
X37654498Y-37395047D01*
X37654490Y-37395054D01*
X37395054Y-37654490D01*
X37395047Y-37654498D01*
X37164147Y-37939635D01*
X36964320Y-38247343D01*
X36797746Y-38574260D01*
X36666260Y-38916793D01*
X36571294Y-39271209D01*
X36571294Y-39271211D01*
X36513898Y-39633594D01*
X36494696Y-39999999D01*
X36494696Y-40000000D01*
X36513898Y-40366405D01*
X36571294Y-40728788D01*
X36571294Y-40728790D01*
X36666260Y-41083206D01*
X36797746Y-41425739D01*
X36964320Y-41752656D01*
X37164147Y-42060364D01*
X37301944Y-42230529D01*
X37395051Y-42345506D01*
X37654494Y-42604949D01*
X37680069Y-42625659D01*
X37939635Y-42835852D01*
X38130044Y-42959505D01*
X38175547Y-43012526D01*
X38185161Y-43081731D01*
X38155834Y-43145148D01*
X38096877Y-43182642D01*
X38062509Y-43187500D01*
X1937491Y-43187500D01*
X1870452Y-43167815D01*
X1824697Y-43115011D01*
X1814753Y-43045853D01*
X1843778Y-42982297D01*
X1869956Y-42959505D01*
X2060364Y-42835852D01*
X2060366Y-42835851D01*
X2345506Y-42604949D01*
X2604949Y-42345506D01*
X2748817Y-42167844D01*
X25030000Y-42167844D01*
X25036401Y-42227372D01*
X25036403Y-42227379D01*
X25086645Y-42362086D01*
X25086649Y-42362093D01*
X25172809Y-42477187D01*
X25172812Y-42477190D01*
X25287906Y-42563350D01*
X25287913Y-42563354D01*
X25422620Y-42613596D01*
X25422627Y-42613598D01*
X25482155Y-42619999D01*
X25482172Y-42620000D01*
X25880000Y-42620000D01*
X25880000Y-41770000D01*
X25030000Y-41770000D01*
X25030000Y-42167844D01*
X2748817Y-42167844D01*
X2835851Y-42060366D01*
X3035682Y-41752652D01*
X3202255Y-41425736D01*
X3333742Y-41083199D01*
X3428705Y-40728794D01*
X3486102Y-40366404D01*
X3505304Y-40000000D01*
X3486102Y-39633596D01*
X3428705Y-39271206D01*
X3333742Y-38916801D01*
X3262036Y-38729999D01*
X25024341Y-38729999D01*
X25024341Y-38730000D01*
X25044936Y-38965403D01*
X25044938Y-38965413D01*
X25106094Y-39193655D01*
X25106096Y-39193659D01*
X25106097Y-39193663D01*
X25186004Y-39365023D01*
X25205965Y-39407830D01*
X25205967Y-39407834D01*
X25314281Y-39562521D01*
X25341501Y-39601396D01*
X25341506Y-39601402D01*
X25463818Y-39723714D01*
X25497303Y-39785037D01*
X25492319Y-39854729D01*
X25450447Y-39910662D01*
X25419471Y-39927577D01*
X25287912Y-39976646D01*
X25287906Y-39976649D01*
X25172812Y-40062809D01*
X25172809Y-40062812D01*
X25086649Y-40177906D01*
X25086645Y-40177913D01*
X25036403Y-40312620D01*
X25036401Y-40312627D01*
X25030000Y-40372155D01*
X25030000Y-40770000D01*
X26256000Y-40770000D01*
X26283756Y-40778150D01*
X26187007Y-40804075D01*
X26072993Y-40869901D01*
X25979901Y-40962993D01*
X25914075Y-41077007D01*
X25880000Y-41204174D01*
X25880000Y-41335826D01*
X25914075Y-41462993D01*
X25979901Y-41577007D01*
X26072993Y-41670099D01*
X26187007Y-41735925D01*
X26314174Y-41770000D01*
X26445826Y-41770000D01*
X26572993Y-41735925D01*
X26687007Y-41670099D01*
X26780099Y-41577007D01*
X26845925Y-41462993D01*
X26873015Y-41361892D01*
X26880000Y-41394000D01*
X26880000Y-42620000D01*
X27277828Y-42620000D01*
X27277844Y-42619999D01*
X27337372Y-42613598D01*
X27337379Y-42613596D01*
X27472086Y-42563354D01*
X27472093Y-42563350D01*
X27587187Y-42477190D01*
X27587190Y-42477187D01*
X27673350Y-42362093D01*
X27673354Y-42362086D01*
X27722422Y-42230529D01*
X27764293Y-42174595D01*
X27829757Y-42150178D01*
X27898030Y-42165030D01*
X27926285Y-42186181D01*
X28048599Y-42308495D01*
X28125135Y-42362086D01*
X28242165Y-42444032D01*
X28242167Y-42444033D01*
X28242170Y-42444035D01*
X28456337Y-42543903D01*
X28684592Y-42605063D01*
X28855319Y-42620000D01*
X28919999Y-42625659D01*
X28920000Y-42625659D01*
X28920001Y-42625659D01*
X28984681Y-42620000D01*
X29155408Y-42605063D01*
X29383663Y-42543903D01*
X29597830Y-42444035D01*
X29791401Y-42308495D01*
X29958495Y-42141401D01*
X30088425Y-41955842D01*
X30143002Y-41912217D01*
X30212500Y-41905023D01*
X30274855Y-41936546D01*
X30291575Y-41955842D01*
X30421500Y-42141395D01*
X30421505Y-42141401D01*
X30588599Y-42308495D01*
X30665135Y-42362086D01*
X30782165Y-42444032D01*
X30782167Y-42444033D01*
X30782170Y-42444035D01*
X30996337Y-42543903D01*
X31224592Y-42605063D01*
X31395319Y-42620000D01*
X31459999Y-42625659D01*
X31460000Y-42625659D01*
X31460001Y-42625659D01*
X31524681Y-42620000D01*
X31695408Y-42605063D01*
X31923663Y-42543903D01*
X32137830Y-42444035D01*
X32331401Y-42308495D01*
X32498495Y-42141401D01*
X32628425Y-41955842D01*
X32683002Y-41912217D01*
X32752500Y-41905023D01*
X32814855Y-41936546D01*
X32831575Y-41955842D01*
X32961500Y-42141395D01*
X32961505Y-42141401D01*
X33128599Y-42308495D01*
X33205135Y-42362086D01*
X33322165Y-42444032D01*
X33322167Y-42444033D01*
X33322170Y-42444035D01*
X33536337Y-42543903D01*
X33764592Y-42605063D01*
X33935319Y-42620000D01*
X33999999Y-42625659D01*
X34000000Y-42625659D01*
X34000001Y-42625659D01*
X34064681Y-42620000D01*
X34235408Y-42605063D01*
X34463663Y-42543903D01*
X34677830Y-42444035D01*
X34871401Y-42308495D01*
X35038495Y-42141401D01*
X35174035Y-41947830D01*
X35273903Y-41733663D01*
X35335063Y-41505408D01*
X35355659Y-41270000D01*
X35335063Y-41034592D01*
X35273903Y-40806337D01*
X35174035Y-40592171D01*
X35168425Y-40584158D01*
X35038494Y-40398597D01*
X34871402Y-40231506D01*
X34871396Y-40231501D01*
X34685842Y-40101575D01*
X34642217Y-40046998D01*
X34635023Y-39977500D01*
X34666546Y-39915145D01*
X34685842Y-39898425D01*
X34797500Y-39820241D01*
X34871401Y-39768495D01*
X35038495Y-39601401D01*
X35174035Y-39407830D01*
X35273903Y-39193663D01*
X35335063Y-38965408D01*
X35355659Y-38730000D01*
X35335063Y-38494592D01*
X35273903Y-38266337D01*
X35174035Y-38052171D01*
X35168425Y-38044158D01*
X35038494Y-37858597D01*
X34871402Y-37691506D01*
X34871395Y-37691501D01*
X34677834Y-37555967D01*
X34677830Y-37555965D01*
X34677828Y-37555964D01*
X34463663Y-37456097D01*
X34463659Y-37456096D01*
X34463655Y-37456094D01*
X34235413Y-37394938D01*
X34235403Y-37394936D01*
X34000001Y-37374341D01*
X33999999Y-37374341D01*
X33764596Y-37394936D01*
X33764586Y-37394938D01*
X33536344Y-37456094D01*
X33536335Y-37456098D01*
X33322171Y-37555964D01*
X33322169Y-37555965D01*
X33128597Y-37691505D01*
X32961505Y-37858597D01*
X32831575Y-38044158D01*
X32776998Y-38087783D01*
X32707500Y-38094977D01*
X32645145Y-38063454D01*
X32628425Y-38044158D01*
X32498494Y-37858597D01*
X32331402Y-37691506D01*
X32331395Y-37691501D01*
X32137834Y-37555967D01*
X32137830Y-37555965D01*
X32137828Y-37555964D01*
X31923663Y-37456097D01*
X31923659Y-37456096D01*
X31923655Y-37456094D01*
X31695413Y-37394938D01*
X31695403Y-37394936D01*
X31460001Y-37374341D01*
X31459999Y-37374341D01*
X31224596Y-37394936D01*
X31224586Y-37394938D01*
X30996344Y-37456094D01*
X30996335Y-37456098D01*
X30782171Y-37555964D01*
X30782169Y-37555965D01*
X30588597Y-37691505D01*
X30421505Y-37858597D01*
X30291575Y-38044158D01*
X30236998Y-38087783D01*
X30167500Y-38094977D01*
X30105145Y-38063454D01*
X30088425Y-38044158D01*
X29958494Y-37858597D01*
X29791402Y-37691506D01*
X29791395Y-37691501D01*
X29597834Y-37555967D01*
X29597830Y-37555965D01*
X29597828Y-37555964D01*
X29383663Y-37456097D01*
X29383659Y-37456096D01*
X29383655Y-37456094D01*
X29155413Y-37394938D01*
X29155403Y-37394936D01*
X28920001Y-37374341D01*
X28919999Y-37374341D01*
X28684596Y-37394936D01*
X28684586Y-37394938D01*
X28456344Y-37456094D01*
X28456335Y-37456098D01*
X28242171Y-37555964D01*
X28242169Y-37555965D01*
X28048597Y-37691505D01*
X27881505Y-37858597D01*
X27751575Y-38044158D01*
X27696998Y-38087783D01*
X27627500Y-38094977D01*
X27565145Y-38063454D01*
X27548425Y-38044158D01*
X27433624Y-37880205D01*
X27411297Y-37813999D01*
X27428307Y-37746232D01*
X27447514Y-37721405D01*
X34817778Y-30351141D01*
X34817782Y-30351139D01*
X34957139Y-30211782D01*
X35066632Y-30047914D01*
X35142051Y-29865835D01*
X35176588Y-29692208D01*
X35180500Y-29672543D01*
X35180500Y-24676456D01*
X35142052Y-24483170D01*
X35142051Y-24483169D01*
X35142051Y-24483165D01*
X35136598Y-24470000D01*
X35066635Y-24301092D01*
X35066628Y-24301079D01*
X34957139Y-24137218D01*
X34957136Y-24137214D01*
X34817785Y-23997863D01*
X34817781Y-23997860D01*
X34653920Y-23888371D01*
X34653907Y-23888364D01*
X34471839Y-23812950D01*
X34471829Y-23812947D01*
X34278543Y-23774500D01*
X34278541Y-23774500D01*
X34081459Y-23774500D01*
X34081457Y-23774500D01*
X33888170Y-23812947D01*
X33888160Y-23812950D01*
X33706092Y-23888364D01*
X33706079Y-23888371D01*
X33542218Y-23997860D01*
X33542214Y-23997863D01*
X33402863Y-24137214D01*
X33402860Y-24137218D01*
X33293371Y-24301079D01*
X33293364Y-24301092D01*
X33217950Y-24483160D01*
X33217947Y-24483170D01*
X33179500Y-24676456D01*
X33179500Y-29108217D01*
X33159815Y-29175256D01*
X33143181Y-29195898D01*
X29431288Y-32907791D01*
X25742221Y-36596858D01*
X25742218Y-36596861D01*
X25672821Y-36666258D01*
X25602859Y-36736219D01*
X25493371Y-36900079D01*
X25493364Y-36900092D01*
X25417950Y-37082160D01*
X25417947Y-37082170D01*
X25379500Y-37275456D01*
X25379500Y-37769241D01*
X25359815Y-37836280D01*
X25343181Y-37856922D01*
X25341505Y-37858597D01*
X25205965Y-38052169D01*
X25205964Y-38052171D01*
X25106098Y-38266335D01*
X25106094Y-38266344D01*
X25044938Y-38494586D01*
X25044936Y-38494596D01*
X25024341Y-38729999D01*
X3262036Y-38729999D01*
X3202255Y-38574264D01*
X3035682Y-38247348D01*
X2932060Y-38087783D01*
X2835852Y-37939635D01*
X2604952Y-37654498D01*
X2604949Y-37654494D01*
X2345506Y-37395051D01*
X2313010Y-37368736D01*
X2060364Y-37164147D01*
X1752656Y-36964320D01*
X1425739Y-36797746D01*
X1083206Y-36666260D01*
X1083199Y-36666258D01*
X728794Y-36571295D01*
X728790Y-36571294D01*
X728789Y-36571294D01*
X366405Y-36513898D01*
X1Y-36494696D01*
X-1Y-36494696D01*
X-366405Y-36513898D01*
X-728788Y-36571294D01*
X-728790Y-36571294D01*
X-1083206Y-36666260D01*
X-1425739Y-36797746D01*
X-1752656Y-36964320D01*
X-2060364Y-37164147D01*
X-2313010Y-37368736D01*
X-2345506Y-37395051D01*
X-2604949Y-37654494D01*
X-2604952Y-37654498D01*
X-2835852Y-37939635D01*
X-3035681Y-38247345D01*
X-3035683Y-38247349D01*
X-3075016Y-38324543D01*
X-3122990Y-38375338D01*
X-3190811Y-38392133D01*
X-3256946Y-38369595D01*
X-3300397Y-38314880D01*
X-3309500Y-38268247D01*
X-3309500Y-30396366D01*
X179500Y-30396366D01*
X179500Y-32203633D01*
X185756Y-32283128D01*
X235298Y-32468022D01*
X322200Y-32638576D01*
X322208Y-32638588D01*
X442661Y-32787336D01*
X442663Y-32787338D01*
X591411Y-32907791D01*
X591417Y-32907795D01*
X591422Y-32907799D01*
X761976Y-32994701D01*
X946870Y-33044243D01*
X1026372Y-33050500D01*
X1026380Y-33050500D01*
X8333620Y-33050500D01*
X8333628Y-33050500D01*
X8413130Y-33044243D01*
X8598024Y-32994701D01*
X8768578Y-32907799D01*
X8917337Y-32787337D01*
X9037799Y-32638578D01*
X9124701Y-32468024D01*
X9174243Y-32283130D01*
X9180500Y-32203628D01*
X9180500Y-30396372D01*
X9174243Y-30316870D01*
X9124701Y-30131976D01*
X9037799Y-29961422D01*
X9037795Y-29961417D01*
X9037791Y-29961411D01*
X8917338Y-29812663D01*
X8917336Y-29812661D01*
X8768588Y-29692208D01*
X8768576Y-29692200D01*
X8598022Y-29605298D01*
X8413128Y-29555756D01*
X8333633Y-29549500D01*
X8333628Y-29549500D01*
X1026372Y-29549500D01*
X1026366Y-29549500D01*
X946871Y-29555756D01*
X761977Y-29605298D01*
X591423Y-29692200D01*
X591411Y-29692208D01*
X442663Y-29812661D01*
X442661Y-29812663D01*
X322208Y-29961411D01*
X322200Y-29961423D01*
X235298Y-30131977D01*
X185756Y-30316871D01*
X179500Y-30396366D01*
X-3309500Y-30396366D01*
X-3309500Y-27123595D01*
X180001Y-27123595D01*
X186253Y-27203049D01*
X235768Y-27387842D01*
X322620Y-27558303D01*
X322621Y-27558304D01*
X443019Y-27706980D01*
X591695Y-27827378D01*
X591696Y-27827379D01*
X762157Y-27914231D01*
X946951Y-27963746D01*
X1026411Y-27969999D01*
X4179999Y-27969999D01*
X4180000Y-27969998D01*
X4180000Y-26720000D01*
X180001Y-26720000D01*
X180001Y-27123595D01*
X-3309500Y-27123595D01*
X-3309500Y-25316405D01*
X180000Y-25316405D01*
X180000Y-25720000D01*
X4180000Y-25720000D01*
X5180000Y-25720000D01*
X7114174Y-25720000D01*
X6987007Y-25754075D01*
X6872993Y-25819901D01*
X6779901Y-25912993D01*
X6714075Y-26027007D01*
X6680000Y-26154174D01*
X6680000Y-26285826D01*
X6714075Y-26412993D01*
X6779901Y-26527007D01*
X6872993Y-26620099D01*
X6987007Y-26685925D01*
X7114174Y-26720000D01*
X5180000Y-26720000D01*
X5180000Y-27969999D01*
X8333579Y-27969999D01*
X8333595Y-27969998D01*
X8413049Y-27963746D01*
X8597842Y-27914231D01*
X8768303Y-27827379D01*
X8768304Y-27827378D01*
X8916980Y-27706980D01*
X9037378Y-27558304D01*
X9037379Y-27558303D01*
X9124231Y-27387842D01*
X9173746Y-27203049D01*
X9173746Y-27203048D01*
X9179999Y-27123594D01*
X9180000Y-27123582D01*
X9180000Y-26720000D01*
X7245826Y-26720000D01*
X7372993Y-26685925D01*
X7487007Y-26620099D01*
X7580099Y-26527007D01*
X7645925Y-26412993D01*
X7680000Y-26285826D01*
X7680000Y-26154174D01*
X7645925Y-26027007D01*
X7580099Y-25912993D01*
X7487007Y-25819901D01*
X7372993Y-25754075D01*
X7245826Y-25720000D01*
X9179999Y-25720000D01*
X9179999Y-25316421D01*
X9179998Y-25316404D01*
X9173746Y-25236950D01*
X9124231Y-25052157D01*
X9037379Y-24881696D01*
X9037378Y-24881695D01*
X8916980Y-24733019D01*
X8768304Y-24612621D01*
X8768303Y-24612620D01*
X8597842Y-24525768D01*
X8413048Y-24476253D01*
X8333594Y-24470000D01*
X5180000Y-24470000D01*
X5180000Y-25720000D01*
X4180000Y-25720000D01*
X4180000Y-24470000D01*
X1026421Y-24470000D01*
X1026404Y-24470001D01*
X946950Y-24476253D01*
X762157Y-24525768D01*
X591696Y-24612620D01*
X591695Y-24612621D01*
X443019Y-24733019D01*
X322621Y-24881695D01*
X322620Y-24881696D01*
X235768Y-25052157D01*
X186253Y-25236950D01*
X186253Y-25236951D01*
X180000Y-25316405D01*
X-3309500Y-25316405D01*
X-3309500Y-20236366D01*
X179500Y-20236366D01*
X179500Y-22043633D01*
X185756Y-22123128D01*
X235298Y-22308022D01*
X322200Y-22478576D01*
X322208Y-22478588D01*
X442661Y-22627336D01*
X442663Y-22627338D01*
X591411Y-22747791D01*
X591417Y-22747795D01*
X591422Y-22747799D01*
X761976Y-22834701D01*
X946870Y-22884243D01*
X1026372Y-22890500D01*
X1026380Y-22890500D01*
X8333620Y-22890500D01*
X8333628Y-22890500D01*
X8413130Y-22884243D01*
X8598024Y-22834701D01*
X8768578Y-22747799D01*
X8917337Y-22627337D01*
X9037799Y-22478578D01*
X9124701Y-22308024D01*
X9174243Y-22123130D01*
X9180500Y-22043628D01*
X9180500Y-20236372D01*
X9174243Y-20156870D01*
X9124701Y-19971976D01*
X9037799Y-19801422D01*
X9037795Y-19801417D01*
X9037791Y-19801411D01*
X8917338Y-19652663D01*
X8917336Y-19652661D01*
X8768588Y-19532208D01*
X8768576Y-19532200D01*
X8598022Y-19445298D01*
X8413128Y-19395756D01*
X8333633Y-19389500D01*
X8333628Y-19389500D01*
X1026372Y-19389500D01*
X1026366Y-19389500D01*
X946871Y-19395756D01*
X761977Y-19445298D01*
X591423Y-19532200D01*
X591411Y-19532208D01*
X442663Y-19652661D01*
X442661Y-19652663D01*
X322208Y-19801411D01*
X322200Y-19801423D01*
X235298Y-19971977D01*
X185756Y-20156871D01*
X179500Y-20236366D01*
X-3309500Y-20236366D01*
X-3309500Y-15156366D01*
X179500Y-15156366D01*
X179500Y-16963633D01*
X185756Y-17043128D01*
X235298Y-17228022D01*
X322200Y-17398576D01*
X322208Y-17398588D01*
X442661Y-17547336D01*
X442663Y-17547338D01*
X591411Y-17667791D01*
X591417Y-17667795D01*
X591422Y-17667799D01*
X761976Y-17754701D01*
X946870Y-17804243D01*
X1026372Y-17810500D01*
X1026380Y-17810500D01*
X8333620Y-17810500D01*
X8333628Y-17810500D01*
X8413130Y-17804243D01*
X8598024Y-17754701D01*
X8768578Y-17667799D01*
X8917337Y-17547337D01*
X9037799Y-17398578D01*
X9124701Y-17228024D01*
X9174243Y-17043130D01*
X9180500Y-16963628D01*
X9180500Y-15156372D01*
X9174243Y-15076870D01*
X9124701Y-14891976D01*
X9037799Y-14721422D01*
X9037795Y-14721417D01*
X9037791Y-14721411D01*
X8917338Y-14572663D01*
X8917336Y-14572661D01*
X8768588Y-14452208D01*
X8768576Y-14452200D01*
X8598022Y-14365298D01*
X8413128Y-14315756D01*
X8333633Y-14309500D01*
X8333628Y-14309500D01*
X1026372Y-14309500D01*
X1026366Y-14309500D01*
X946871Y-14315756D01*
X761977Y-14365298D01*
X591423Y-14452200D01*
X591411Y-14452208D01*
X442663Y-14572661D01*
X442661Y-14572663D01*
X322208Y-14721411D01*
X322200Y-14721423D01*
X235298Y-14891977D01*
X185756Y-15076871D01*
X179500Y-15156366D01*
X-3309500Y-15156366D01*
X-3309500Y-10076366D01*
X179500Y-10076366D01*
X179500Y-11883633D01*
X185756Y-11963128D01*
X235298Y-12148022D01*
X322200Y-12318576D01*
X322208Y-12318588D01*
X442661Y-12467336D01*
X442663Y-12467338D01*
X591411Y-12587791D01*
X591417Y-12587795D01*
X591422Y-12587799D01*
X761976Y-12674701D01*
X946870Y-12724243D01*
X1026372Y-12730500D01*
X1026380Y-12730500D01*
X8333620Y-12730500D01*
X8333628Y-12730500D01*
X8413130Y-12724243D01*
X8598024Y-12674701D01*
X8768578Y-12587799D01*
X8917337Y-12467337D01*
X9037799Y-12318578D01*
X9124701Y-12148024D01*
X9174243Y-11963130D01*
X9180500Y-11883628D01*
X9180500Y-10076372D01*
X9174243Y-9996870D01*
X9124701Y-9811976D01*
X9037799Y-9641422D01*
X9037795Y-9641417D01*
X9037791Y-9641411D01*
X8917338Y-9492663D01*
X8917336Y-9492661D01*
X8768588Y-9372208D01*
X8768576Y-9372200D01*
X8598022Y-9285298D01*
X8413128Y-9235756D01*
X8333633Y-9229500D01*
X8333628Y-9229500D01*
X1026372Y-9229500D01*
X1026366Y-9229500D01*
X946871Y-9235756D01*
X761977Y-9285298D01*
X591423Y-9372200D01*
X591411Y-9372208D01*
X442663Y-9492661D01*
X442661Y-9492663D01*
X322208Y-9641411D01*
X322200Y-9641423D01*
X235298Y-9811977D01*
X185756Y-9996871D01*
X179500Y-10076366D01*
X-3309500Y-10076366D01*
X-3309500Y-1731752D01*
X-3289815Y-1664713D01*
X-3237011Y-1618958D01*
X-3167853Y-1609014D01*
X-3104297Y-1638039D01*
X-3075015Y-1675456D01*
X-3035682Y-1752652D01*
X-2835851Y-2060366D01*
X-2604949Y-2345506D01*
X-2345506Y-2604949D01*
X-2060366Y-2835851D01*
X-1752652Y-3035682D01*
X-1425736Y-3202255D01*
X-1083199Y-3333742D01*
X-728794Y-3428705D01*
X-366404Y-3486102D01*
X-19203Y-3504297D01*
X-1Y-3505304D01*
X0Y-3505304D01*
X1Y-3505304D01*
X19203Y-3504297D01*
X366404Y-3486102D01*
X728794Y-3428705D01*
X1083199Y-3333742D01*
X1425736Y-3202255D01*
X1752652Y-3035682D01*
X2060366Y-2835851D01*
X2345506Y-2604949D01*
X2604949Y-2345506D01*
X2835134Y-2061250D01*
X2892621Y-2021540D01*
X2962452Y-2019212D01*
X3022456Y-2055007D01*
X3053582Y-2117561D01*
X3055500Y-2139287D01*
X3055500Y-5145891D01*
X3089608Y-5273187D01*
X3122554Y-5330250D01*
X3155500Y-5387314D01*
X3248686Y-5480500D01*
X3362814Y-5546392D01*
X3490108Y-5580500D01*
X3490110Y-5580500D01*
X36514890Y-5580500D01*
X36514892Y-5580500D01*
X36642186Y-5546392D01*
X36756314Y-5480500D01*
X36849500Y-5387314D01*
X36915392Y-5273186D01*
X36949500Y-5145892D01*
X36949500Y-2145462D01*
X36969185Y-2078423D01*
X37021989Y-2032668D01*
X37091147Y-2022724D01*
X37154703Y-2051749D01*
X37169866Y-2067426D01*
X37395051Y-2345506D01*
X37654494Y-2604949D01*
X37654498Y-2604952D01*
X37939635Y-2835852D01*
X38247343Y-3035679D01*
X38247348Y-3035682D01*
X38574264Y-3202255D01*
X38916801Y-3333742D01*
X39271206Y-3428705D01*
X39633596Y-3486102D01*
X39979734Y-3504241D01*
X39999999Y-3505304D01*
X40000000Y-3505304D01*
X40000001Y-3505304D01*
X40019203Y-3504297D01*
X40366404Y-3486102D01*
X40728794Y-3428705D01*
X41083199Y-3333742D01*
X41425736Y-3202255D01*
X41752652Y-3035682D01*
X42060366Y-2835851D01*
X42345506Y-2604949D01*
X42604949Y-2345506D01*
X42835851Y-2060366D01*
X43035682Y-1752652D01*
X43080015Y-1665643D01*
X43127990Y-1614848D01*
X43195811Y-1598053D01*
X43261946Y-1620590D01*
G37*
%TD.AperFunction*%
%TD*%
M02*
